<svg width="4083" height="1301" xmlns="http://www.w3.org/2000/svg" xmlns:xlink="http://www.w3.org/1999/xlink" overflow="hidden"><defs><clipPath id="clip0"><rect x="272" y="559" width="4083" height="1301"/></clipPath></defs><g clip-path="url(#clip0)" transform="translate(-272 -559)"><path d="M4178 1468C4178 1634.24 4043.24 1769 3877 1769 3710.76 1769 3576 1634.24 3576 1468 3576 1301.76 3710.76 1167 3877 1167 4043.24 1167 4178 1301.76 4178 1468ZM3934.97 1468C3934.97 1435.98 3909.02 1410.03 3877 1410.03 3844.98 1410.03 3819.03 1435.98 3819.03 1468 3819.03 1500.02 3844.98 1525.97 3877 1525.97 3909.02 1525.97 3934.97 1500.02 3934.97 1468Z" fill-rule="evenodd"/><path d="M3885 1772 4355 1124 4355 1772Z" fill="#FFFFFF" fill-rule="evenodd"/><path d="M3406 1769 3406 1121 3877 1769Z" fill="#FFFFFF" fill-rule="evenodd"/><rect x="3804" y="1302" width="146" height="346"/><path d="M4120 1057 3884.5 1462 3649 1057Z" fill="#FFFFFF" fill-rule="evenodd"/><rect x="3810" y="1639" width="146" height="221"/><path d="M2027 1505C2027 1671.24 1892.46 1806 1726.5 1806 1560.54 1806 1426 1671.24 1426 1505 1426 1338.76 1560.54 1204 1726.5 1204 1892.46 1204 2027 1338.76 2027 1505ZM1784.38 1505C1784.38 1472.76 1758.46 1446.62 1726.5 1446.62 1694.54 1446.62 1668.62 1472.76 1668.62 1505 1668.62 1537.24 1694.54 1563.38 1726.5 1563.38 1758.46 1563.38 1784.38 1537.24 1784.38 1505Z" fill="#437CFF" fill-rule="evenodd"/><path d="M1734 1809 2205 1161 2205 1809Z" fill="#FFFFFF" fill-rule="evenodd"/><path d="M1256 1806 1256 1158 1727 1806Z" fill="#FFFFFF" fill-rule="evenodd"/><rect x="1654" y="1339" width="145" height="346" fill="#437CFF"/><path d="M1970 1094 1734.5 1499 1499 1094Z" fill="#FFFFFF" fill-rule="evenodd"/><path d="M2479 872.5C2479 706.538 2613.54 572 2779.5 572 2945.46 572 3080 706.538 3080 872.5 3080 1038.46 2945.46 1173 2779.5 1173 2613.54 1173 2479 1038.46 2479 872.5ZM2629.36 872.5C2629.36 955.417 2696.58 1022.64 2779.5 1022.64 2862.42 1022.64 2929.64 955.417 2929.64 872.5 2929.64 789.582 2862.42 722.364 2779.5 722.364 2696.58 722.364 2629.36 789.582 2629.36 872.5Z" fill-rule="evenodd"/><rect x="2453" y="738" width="652" height="262" fill="#FFFFFF"/><path d="M2104 867.5C2104 701.538 2238.76 567 2405 567 2571.24 567 2706 701.538 2706 867.5 2706 1033.46 2571.24 1168 2405 1168 2238.76 1168 2104 1033.46 2104 867.5ZM2254.36 867.5C2254.36 950.418 2321.81 1017.64 2405 1017.64 2488.19 1017.64 2555.64 950.418 2555.64 867.5 2555.64 784.582 2488.19 717.364 2405 717.364 2321.81 717.364 2254.36 784.582 2254.36 867.5Z" fill="#437CFF" fill-rule="evenodd"/><path d="M2332 813 2332 1219 1861 813Z" fill="#FFFFFF" fill-rule="evenodd"/><rect x="2332" y="688" width="146" height="345" fill="#437CFF"/><path d="M272 872.5C272 706.539 406.538 572 572.5 572 738.462 572 873 706.539 873 872.5 873 1038.46 738.462 1173 572.5 1173 406.538 1173 272 1038.46 272 872.5ZM422.25 872.5C422.25 955.481 489.519 1022.75 572.5 1022.75 655.481 1022.75 722.75 955.481 722.75 872.5 722.75 789.519 655.481 722.25 572.5 722.25 489.519 722.25 422.25 789.519 422.25 872.5Z" fill="#437CFF" fill-rule="evenodd"/><path d="M878 1108 472 872.5 878 637Z" fill="#FFFFFF" fill-rule="evenodd"/><path d="M650 872.5C650 706.538 784.538 572 950.5 572 1116.46 572 1251 706.538 1251 872.5 1251 1038.46 1116.46 1173 950.5 1173 784.538 1173 650 1038.46 650 872.5ZM800.25 872.5C800.25 955.481 867.519 1022.75 950.5 1022.75 1033.48 1022.75 1100.75 955.481 1100.75 872.5 1100.75 789.519 1033.48 722.25 950.5 722.25 867.519 722.25 800.25 789.519 800.25 872.5Z" fill-rule="evenodd"/><path d="M1475.5 1173C1309.54 1173 1175 1038.46 1175 872.5 1175 706.538 1309.54 571.999 1475.5 571.999 1641.46 571.999 1776 706.538 1776 872.5 1776 1038.46 1641.46 1173 1475.5 1173ZM1475.5 1022.75C1558.48 1022.75 1625.75 955.481 1625.75 872.5 1625.75 789.519 1558.48 722.25 1475.5 722.25 1392.52 722.25 1325.25 789.519 1325.25 872.5 1325.25 955.481 1392.52 1022.75 1475.5 1022.75Z" fill="#437CFF" fill-rule="evenodd"/><rect x="1324" y="559" width="302" height="314" fill="#FFFFFF"/><path d="M1962.5 567C2128.46 567 2263 701.538 2263 867.5 2263 1033.46 2128.46 1168 1962.5 1168 1796.54 1168 1662 1033.46 1662 867.5 1662 701.538 1796.54 567 1962.5 567ZM1962.5 717.25C1879.52 717.25 1812.25 784.519 1812.25 867.5 1812.25 950.481 1879.52 1017.75 1962.5 1017.75 2045.48 1017.75 2112.75 950.481 2112.75 867.5 2112.75 784.519 2045.48 717.25 1962.5 717.25Z" fill-rule="evenodd"/><rect x="1812" y="869" width="300" height="314" fill="#FFFFFF"/><rect x="2707" y="693" width="145" height="345"/><path d="M3207.5 598C3373.46 598 3508 732.539 3508 898.5 3508 1064.46 3373.46 1199 3207.5 1199 3041.54 1199 2907 1064.46 2907 898.5 2907 732.539 3041.54 598 3207.5 598ZM3207.5 748.25C3124.52 748.25 3057.25 815.519 3057.25 898.5 3057.25 981.481 3124.52 1048.75 3207.5 1048.75 3290.48 1048.75 3357.75 981.481 3357.75 898.5 3357.75 815.519 3290.48 748.25 3207.5 748.25Z" fill="#437CFF" fill-rule="evenodd"/><rect x="3057" y="900" width="300" height="314" fill="#FFFFFF"/><path d="M3351 891.5C3351 725.538 3485.54 591 3651.5 591 3817.46 591 3952 725.538 3952 891.5 3952 1057.46 3817.46 1192 3651.5 1192 3485.54 1192 3351 1057.46 3351 891.5ZM3501.25 891.5C3501.25 974.481 3568.52 1041.75 3651.5 1041.75 3734.48 1041.75 3801.75 974.481 3801.75 891.5 3801.75 808.519 3734.48 741.25 3651.5 741.25 3568.52 741.25 3501.25 808.519 3501.25 891.5Z" fill-rule="evenodd"/><rect x="3696" y="811" width="320" height="388" fill="#FFFFFF"/><path d="M3949 1231 3820 1231 3820 1040 3691 1040 3691 911 3949 911Z" fill-rule="evenodd"/><path d="M2725 1508.5C2725 1342.54 2859.76 1208 3026 1208 3192.24 1208 3327 1342.54 3327 1508.5 3327 1674.46 3192.24 1809 3026 1809 2859.76 1809 2725 1674.46 2725 1508.5ZM2875.36 1508.5C2875.36 1591.42 2942.81 1658.64 3026 1658.64 3109.19 1658.64 3176.64 1591.42 3176.64 1508.5 3176.64 1425.58 3109.19 1358.36 3026 1358.36 2942.81 1358.36 2875.36 1425.58 2875.36 1508.5Z" fill-rule="evenodd"/><path d="M3569 1454 3099 1860 3099 1454Z" fill="#FFFFFF" fill-rule="evenodd"/><path d="M2953 1454 2953 1860 2482 1454Z" fill="#FFFFFF" fill-rule="evenodd"/><rect x="2953" y="1328" width="146" height="346"/><path d="M535 1513C535 1346.76 669.762 1212 836 1212 1002.24 1212 1137 1346.76 1137 1513 1137 1679.24 1002.24 1814 836 1814 669.762 1814 535 1679.24 535 1513ZM685.5 1513C685.5 1596.12 752.881 1663.5 836 1663.5 919.119 1663.5 986.5 1596.12 986.5 1513 986.5 1429.88 919.119 1362.5 836 1362.5 752.881 1362.5 685.5 1429.88 685.5 1513Z" fill="#437CFF" fill-rule="evenodd"/><path d="M1141 1748 736 1513 1141 1278Z" fill="#FFFFFF" fill-rule="evenodd"/><path d="M913 1513C913 1346.76 1047.76 1212 1214 1212 1380.24 1212 1515 1346.76 1515 1513 1515 1679.24 1380.24 1814 1214 1814 1047.76 1814 913 1679.24 913 1513ZM1063.5 1513C1063.5 1596.12 1130.88 1663.5 1214 1663.5 1297.12 1663.5 1364.5 1596.12 1364.5 1513 1364.5 1429.88 1297.12 1362.5 1214 1362.5 1130.88 1362.5 1063.5 1429.88 1063.5 1513Z" fill-rule="evenodd"/><path d="M1900 1517.5C1900 1351.54 2034.54 1217 2200.5 1217 2366.46 1217 2501 1351.54 2501 1517.5 2501 1683.46 2366.46 1818 2200.5 1818 2034.54 1818 1900 1683.46 1900 1517.5ZM2050.25 1517.5C2050.25 1600.48 2117.52 1667.75 2200.5 1667.75 2283.48 1667.75 2350.75 1600.48 2350.75 1517.5 2350.75 1434.52 2283.48 1367.25 2200.5 1367.25 2117.52 1367.25 2050.25 1434.52 2050.25 1517.5Z" fill-rule="evenodd"/><path d="M2506 1753 2100 1517.5 2506 1282Z" fill="#FFFFFF" fill-rule="evenodd"/><path d="M2200 1453 2325 1526 2200 1599Z" fill-rule="evenodd"/><rect x="1927" y="1453" width="273" height="146"/><path d="M2580.5 1208C2746.46 1208 2881 1342.54 2881 1508.5 2881 1674.46 2746.46 1809 2580.5 1809 2414.54 1809 2280 1674.46 2280 1508.5 2280 1342.54 2414.54 1208 2580.5 1208ZM2580.5 1358.25C2497.52 1358.25 2430.25 1425.52 2430.25 1508.5 2430.25 1591.48 2497.52 1658.75 2580.5 1658.75 2663.48 1658.75 2730.75 1591.48 2730.75 1508.5 2730.75 1425.52 2663.48 1358.25 2580.5 1358.25Z" fill="#437CFF" fill-rule="evenodd"/><rect x="2430" y="1509" width="300" height="314" fill="#FFFFFF"/><path d="M3485.5 1238C3651.46 1238 3786 1372.76 3786 1539 3786 1705.24 3651.46 1840 3485.5 1840 3319.54 1840 3185 1705.24 3185 1539 3185 1372.76 3319.54 1238 3485.5 1238ZM3485.5 1388.25C3402.52 1388.25 3335.25 1455.74 3335.25 1539 3335.25 1622.26 3402.52 1689.75 3485.5 1689.75 3568.48 1689.75 3635.75 1622.26 3635.75 1539 3635.75 1455.74 3568.48 1388.25 3485.5 1388.25Z" fill="#437CFF" fill-rule="evenodd"/><rect x="3335" y="1540" width="301" height="314" fill="#FFFFFF"/><rect x="3511" y="1473" width="275" height="381" fill="#FFFFFF"/><path d="M3810 1473 3810 1675 3657 1473Z" fill-rule="evenodd"/><rect x="2481" y="811" width="225" height="190" fill="#FFFFFF"/><rect x="2478" y="984" width="113" height="180" fill="#FFFFFF"/><path d="M2598 1001 2598 1112 2481 1001Z" fill-rule="evenodd"/><rect x="2575" y="1001" width="329" height="71.9999"/><rect x="2593" y="1028" width="110" height="71.9999"/></g></svg>